<?xml version="1.0" encoding="UTF-8" standalone="no"?>
<!-- Created with Inkscape (http://www.inkscape.org/) -->

<svg
   xmlns:dc="http://purl.org/dc/elements/1.1/"
   xmlns:cc="http://creativecommons.org/ns#"
   xmlns:rdf="http://www.w3.org/1999/02/22-rdf-syntax-ns#"
   xmlns:svg="http://www.w3.org/2000/svg"
   xmlns="http://www.w3.org/2000/svg"
   xmlns:sodipodi="http://sodipodi.sourceforge.net/DTD/sodipodi-0.dtd"
   xmlns:inkscape="http://www.inkscape.org/namespaces/inkscape"
   width="250mm"
   height="108mm"
   viewBox="0 0 885.82686 382.67717"
   id="svg2"
   version="1.1"
   inkscape:version="0.91 r13725"
   sodipodi:docname="logo.svg"
   inkscape:export-filename="C:\Users\django\Desktop\Hockey\logo\logo.png"
   inkscape:export-xdpi="158.10699"
   inkscape:export-ydpi="158.10699">
  <sodipodi:namedview
     id="base"
     pagecolor="#ffffff"
     bordercolor="#666666"
     borderopacity="1.0"
     inkscape:pageopacity="0.0"
     inkscape:pageshadow="2"
     inkscape:zoom="0.49497475"
     inkscape:cx="435.62342"
     inkscape:cy="362.83297"
     inkscape:document-units="px"
     inkscape:current-layer="layer1"
     showgrid="false"
     inkscape:snap-bbox="true"
     inkscape:snap-grids="true"
     inkscape:snap-to-guides="false"
     inkscape:window-width="1176"
     inkscape:window-height="601"
     inkscape:window-x="-8"
     inkscape:window-y="-8"
     inkscape:window-maximized="1">
    <inkscape:grid
       id="grid4179"
       type="xygrid" />
  </sodipodi:namedview>
  <defs
     id="defs4" />
  <metadata
     id="metadata7">
    <rdf:RDF>
      <cc:Work
         rdf:about="">
        <dc:format>image/svg+xml</dc:format>
        <dc:type
           rdf:resource="http://purl.org/dc/dcmitype/StillImage" />
        <dc:title />
      </cc:Work>
    </rdf:RDF>
  </metadata>
  <g
     id="layer1"
     inkscape:groupmode="layer"
     inkscape:label="Layer 1"
     transform="translate(0,-669.68505)"
     style="display:inline">
    <rect
       y="676.95831"
       x="22.643148"
       height="373.96371"
       width="373.96371"
       id="rect4147"
       style="opacity:1;fill:#00158c;fill-opacity:1;fill-rule:evenodd;stroke:none;stroke-width:50;stroke-linecap:round;stroke-linejoin:round;stroke-miterlimit:4;stroke-dasharray:none;stroke-dashoffset:0;stroke-opacity:1" />
    <path
       inkscape:connector-curvature="0"
       id="path4170"
       d="m 230.95624,868.68154 79.50053,-66.50654 -76.54177,52.96823 -2.95876,13.53831 z m 3.28449,-17.13978 79.50053,-66.50655 -76.54179,52.96826 -2.95874,13.53829 z m 3.75371,-19.58831 79.50052,-66.50655 -76.54178,52.96826 -2.95874,13.53829 z m 3.75371,-19.58832 79.50052,-66.50655 -76.5418,52.96827 -2.95872,13.53828 z m 3.75368,-19.58832 79.50054,-66.50653 -76.54177,52.96824 -2.95877,13.53829 z"
       style="fill:#ff0e00;fill-opacity:1;fill-rule:evenodd;stroke:none;stroke-width:1px;stroke-linecap:butt;stroke-linejoin:miter;stroke-opacity:1" />
    <path
       style="opacity:0.84899998;fill:#21f40f;fill-opacity:1;fill-rule:evenodd;stroke:none;stroke-width:42;stroke-linecap:round;stroke-linejoin:round;stroke-miterlimit:4;stroke-dasharray:none;stroke-dashoffset:0;stroke-opacity:1"
       d="m 204.2173,735.72558 c -18.00629,2.36379 -20.2462,21.45635 -9.85948,31.07689 -6.55528,-1.81257 -15.03166,-3.62242 -23.49446,-3.37201 -15.51269,0.45903 -30.89351,7.86396 -33.98785,34.94955 8.11091,58.00986 36.31906,58.59 17.64884,105.82978 -0.76714,-10.28739 0.69395,-12.18292 -5.33676,-15.9665 26.80557,-2.11929 -21.73581,-77.5251 -22.09941,-71.30388 0.9249,13.22162 -5.97957,14.02081 -12.27556,31.79665 -1.49994,4.23489 4.81831,10.77064 5.25476,18.50351 2.22631,39.44433 13.20378,41.36522 16.95858,40.7089 -3.4164,9.82685 -7.65476,31.84203 2.23795,28.82246 0,0 7.83613,-5.71136 9.01067,-7.10677 0.3582,-0.45594 0.68296,-0.93782 1.00308,-1.42185 0.0154,0.1006 0.0257,0.19091 0.0414,0.29217 1.06135,6.85319 2.84783,15.24798 1.2149,21.57107 -1.09053,4.22278 -7.73218,5.596 -9.37587,9.63883 -1.4912,3.66777 0.24866,11.28666 -2.59535,13.58052 -8.71412,7.02848 -6.51678,17.40351 -4.21684,18.83209 4.10291,2.54851 12.00162,-1.07379 14.85143,-8.0782 1.0152,-2.4952 6.62585,-5.29208 9.27362,-9.62177 2.47565,-4.04822 2.04266,-11.05294 4.13892,-16.17344 7.27334,-17.7665 18.52514,-29.67174 20.58018,-44.11117 0.21511,-1.51141 -4.7096,-8.71753 -1.82356,-15.8472 1.11517,-2.7549 1.48435,-3.59491 2.10592,-6.64676 l 8.1814,7.74635 c -1.45515,8.19898 7.45455,14.32042 15.24355,13.68472 l 66.54577,68.49471 c 1.39137,2.53668 2.65428,9.01282 5.90357,10.40059 9.10353,3.88808 23.01797,-1.97794 15.87377,-13.47753 l -2.0545,0.63551 c -6.9779,8.18061 -9.60145,3.93771 -9.60145,3.93771 -24.89744,-27.63736 -56.51562,-52.79779 -76.29138,-76.45332 -1.54795,-1.87844 -0.52735,-5.47465 -2.05796,-7.45684 -13.59264,-12.68715 -18.79143,-17.84564 -17.39588,-31.88479 1.67199,-17.60972 1.92583,-33.95652 2.65038,-53.17326 0.2521,-6.55587 -1.93271,17.89722 5.79449,37.58628 0,0 -4.65766,7.90314 -4.37702,14.46138 0.48641,16.47143 2.97407,19.40423 4.52407,22.26162 1.11562,2.05661 3.5194,3.07181 4.36445,3.63606 4.57377,3.05389 4.55044,-11.75922 10.00151,-25.13757 l -2.44927,-15.58182 c 6.23272,-18.59157 16.78288,-41.13201 4.57959,-54.22231 -11.42848,-12.25919 -12.24283,-20.95913 -10.74171,-25.24255 3.6093,1.78486 7.58299,3.26737 11.49403,4.75246 5.56313,2.11241 7.98251,-13.0277 7.94026,-18.8131 -0.0451,-3.23451 4.00099,-9.46176 10.09569,-10.12271 -7.42242,-3.54937 -18.33742,-11.76642 -27.47847,-11.98446 z"
       id="path4183"
       inkscape:connector-curvature="0"
       sodipodi:nodetypes="ccsccccssccccssssssssssccccscccccccccssccscsccc" />
    <flowRoot
       xml:space="preserve"
       id="flowRoot4155"
       style="font-style:normal;font-weight:normal;font-size:17.5px;line-height:125%;font-family:sans-serif;letter-spacing:0px;word-spacing:0px;fill:#000000;fill-opacity:1;stroke:none;stroke-width:1px;stroke-linecap:butt;stroke-linejoin:miter;stroke-opacity:1"
       transform="translate(-28.446718,554.70433)"><flowRegion
         id="flowRegion4157"><rect
           id="rect4159"
           width="383.85797"
           height="339.41125"
           x="602.0509"
           y="218.81516" /></flowRegion><flowPara
         id="flowPara4161"
         style="font-size:80px">&gt;&gt;&gt;&gt;&gt;&gt;&gt;&gt;&gt;&gt;&gt;</flowPara></flowRoot>    <flowRoot
       xml:space="preserve"
       id="flowRoot4163"
       style="font-style:normal;font-weight:normal;font-size:80px;line-height:125%;font-family:sans-serif;letter-spacing:0px;word-spacing:0px;fill:#000000;fill-opacity:1;stroke:none;stroke-width:1px;stroke-linecap:butt;stroke-linejoin:miter;stroke-opacity:1"
       transform="translate(-28.446718,246.43661)"><flowRegion
         id="flowRegion4165"><rect
           id="rect4167"
           width="343.45187"
           height="375.77676"
           x="618.21338"
           y="239.0182"
           style="font-size:80px" /></flowRegion><flowPara
         id="flowPara4169" /></flowRoot>    <g
       transform="translate(-197.00494,486.8911)"
       style="font-style:normal;font-weight:normal;font-size:17.5px;line-height:125%;font-family:sans-serif;letter-spacing:0px;word-spacing:0px;fill:#00158c;fill-opacity:1;stroke:none;stroke-width:1px;stroke-linecap:butt;stroke-linejoin:miter;stroke-opacity:1"
       id="flowRoot4171">
      <path
         d="m 611.79492,306.60374 0,-67.22657 5.9375,0 0,30.42969 20.70313,0 0,-30.42969 5.9375,0 0,67.22657 -5.9375,0 0,-32.65625 -20.70313,0 0,32.65625 -5.9375,0 z"
         style="font-style:normal;font-variant:normal;font-weight:300;font-stretch:normal;font-size:80px;line-height:129.99999523%;font-family:Oswald;-inkscape-font-specification:'Oswald Light';letter-spacing:4.94999981px;fill:#00158c;fill-opacity:1"
         id="path4153"
         inkscape:connector-curvature="0" />
      <path
         d="m 659.55742,287.11155 0,-28.16406 q 0,-3.55469 0.50782,-6.52344 0.54687,-2.96875 1.79687,-5.58594 1.25,-2.65625 3.16406,-4.45312 1.91407,-1.83594 4.88282,-2.89063 2.96875,-1.05469 6.79687,-1.05469 3.82813,0 6.79688,1.05469 2.96875,1.05469 4.88281,2.89063 1.91406,1.79687 3.16406,4.45312 1.25,2.61719 1.75781,5.58594 0.54688,2.96875 0.54688,6.52344 l 0,28.16406 q 0,20.54687 -17.14844,20.54687 -17.14844,0 -17.14844,-20.54687 z m 28.35938,1.32812 0,-30.82031 q 0,-14.41406 -11.21094,-14.41406 -11.21094,0 -11.21094,14.41406 l 0,30.82031 q 0,14.45313 11.21094,14.45313 11.21094,0 11.21094,-14.45313 z"
         style="font-style:normal;font-variant:normal;font-weight:300;font-stretch:normal;font-size:80px;line-height:129.99999523%;font-family:Oswald;-inkscape-font-specification:'Oswald Light';letter-spacing:4.94999981px;fill:#00158c;fill-opacity:1"
         id="path4155"
         inkscape:connector-curvature="0" />
      <path
         d="m 707.78867,287.11155 0,-28.16406 q 0,-3.59375 0.46875,-6.52344 0.46875,-2.92969 1.64063,-5.58594 1.21094,-2.65625 3.08594,-4.45312 1.875,-1.83594 4.76562,-2.89063 2.92969,-1.05469 6.75781,-1.05469 15.78125,0 15.78125,20.50782 l 0,2.73437 -5.66406,0 0,-4.0625 q 0,-3.24219 -0.50781,-5.74219 -0.46875,-2.5 -1.60156,-4.49218 -1.13282,-2.03125 -3.16407,-3.08594 -1.99218,-1.09375 -4.84375,-1.09375 -2.57812,0 -4.49218,0.74219 -1.91407,0.70312 -3.125,1.95312 -1.17188,1.25 -1.91407,3.125 -0.70312,1.875 -0.97656,3.94531 -0.27344,2.03125 -0.27344,4.64844 l 0,30.82031 q 0,3.32032 0.46875,5.78125 0.46875,2.42188 1.60157,4.49219 1.17187,2.03125 3.35937,3.125 2.1875,1.05469 5.35156,1.05469 2.85157,0 4.84375,-1.05469 2.03125,-1.09375 3.16407,-3.125 1.13281,-2.03125 1.60156,-4.53125 0.50781,-2.5 0.50781,-5.74219 l 0,-4.60937 5.66406,0 0,3.28125 q 0,3.55469 -0.42968,6.48437 -0.42969,2.92969 -1.5625,5.625 -1.09375,2.65625 -2.85157,4.49219 -1.75781,1.79688 -4.53125,2.89063 -2.77343,1.05468 -6.40625,1.05468 -3.90625,0 -6.875,-1.05468 -2.92968,-1.09375 -4.80468,-2.89063 -1.83594,-1.83594 -3.00782,-4.49219 -1.13281,-2.69531 -1.60156,-5.58593 -0.42969,-2.92969 -0.42969,-6.52344 z"
         style="font-style:normal;font-variant:normal;font-weight:300;font-stretch:normal;font-size:80px;line-height:129.99999523%;font-family:Oswald;-inkscape-font-specification:'Oswald Light';letter-spacing:4.94999981px;fill:#00158c;fill-opacity:1"
         id="path4157"
         inkscape:connector-curvature="0" />
      <path
         d="m 754.30118,306.60374 0,-67.22657 5.9375,0 0,35.35157 17.92969,-35.35157 6.13281,0 -13.90625,27.73438 17.07031,39.49219 -6.28906,0 -14.375,-35.50782 -6.5625,11.79688 0,23.71094 -5.9375,0 z"
         style="font-style:normal;font-variant:normal;font-weight:300;font-stretch:normal;font-size:80px;line-height:129.99999523%;font-family:Oswald;-inkscape-font-specification:'Oswald Light';letter-spacing:4.94999981px;fill:#00158c;fill-opacity:1"
         id="path4159"
         inkscape:connector-curvature="0" />
      <path
         d="m 797.53242,306.60374 0,-67.22657 23.4375,0 0,4.76563 -17.5,0 0,25.46875 12.5,0 0,4.49219 -12.5,0 0,27.73437 17.5,0 0,4.76563 -23.4375,0 z"
         style="font-style:normal;font-variant:normal;font-weight:300;font-stretch:normal;font-size:80px;line-height:129.99999523%;font-family:Oswald;-inkscape-font-specification:'Oswald Light';letter-spacing:4.94999981px;fill:#00158c;fill-opacity:1"
         id="path4161"
         inkscape:connector-curvature="0" />
      <path
         d="m 842.48242,306.60374 0,-20.85938 -14.6875,-46.36719 6.01563,0 q 0.78125,2.8125 2.26562,7.92969 1.48438,5.11719 3.04688,10.39063 1.5625,5.27343 3.00781,10.15625 1.48437,4.84375 2.42187,7.96875 l 0.9375,3.08593 q 2.5,-9.17968 5.78125,-20.27343 3.28125,-11.13282 5.54688,-19.25782 l 5.82031,0 -14.21875,46.36719 0,20.85938 -5.9375,0 z"
         style="font-style:normal;font-variant:normal;font-weight:300;font-stretch:normal;font-size:80px;line-height:129.99999523%;font-family:Oswald;-inkscape-font-specification:'Oswald Light';letter-spacing:4.94999981px;fill:#00158c;fill-opacity:1"
         id="path4163"
         inkscape:connector-curvature="0" />
      <path
         d="m 618.04492,389.15842 14.0625,0 -7.07031,-39.60937 -6.99219,39.60937 z m -4.14062,21.44532 -5.97657,0 13.28125,-67.22657 7.73438,0 13.28125,67.22657 -6.01563,0 -3.35937,-17.5 -15.50781,0 -3.4375,17.5 z"
         style="font-style:normal;font-variant:normal;font-weight:300;font-stretch:normal;font-size:80px;line-height:129.99999523%;font-family:Oswald;-inkscape-font-specification:'Oswald Light';letter-spacing:4.94999981px;fill:#00158c;fill-opacity:1"
         id="path4165"
         inkscape:connector-curvature="0" />
      <path
         d="m 651.6668,394.3928 5.23437,-1.52344 q 0.3125,2.8125 1.09375,5.19531 0.82032,2.38282 2.1875,4.45313 1.36719,2.03125 3.59375,3.20312 2.26563,1.17188 5.11719,1.17188 4.57031,0 7.07031,-2.53906 2.5,-2.53907 2.5,-7.1875 0,-3.86719 -2.30468,-7.46094 -2.26563,-3.59375 -6.71875,-8.28125 l -10.50782,-11.05469 q -3.4375,-3.63281 -5.27343,-6.79687 -1.83594,-3.16407 -1.83594,-6.64063 0,-6.60156 4.33594,-10.54687 4.33593,-3.94532 11.13281,-3.94532 6.60156,0 10.625,3.75 4.02344,3.71094 5.35156,10.82032 l 0.11719,0.625 -5,1.5625 -0.0781,-0.54688 q -0.78125,-5.03906 -3.63281,-8.24219 -2.8125,-3.20312 -7.38281,-3.20312 -4.45313,0 -7.10938,2.26562 -2.61718,2.26563 -2.61718,6.67969 0,2.65625 1.40625,5.23438 1.44531,2.57812 4.10156,5.46875 l 9.88281,10.74218 q 0.39063,0.42969 1.95313,2.14844 1.5625,1.67969 2.03125,2.22656 0.50781,0.54688 1.79687,2.10938 1.32813,1.5625 1.79688,2.38281 0.50781,0.78125 1.40625,2.26563 0.89843,1.44531 1.21093,2.53906 0.35157,1.09375 0.66407,2.53906 0.3125,1.44531 0.3125,2.85156 0,7.1875 -4.45313,11.09375 -4.41406,3.90625 -11.44531,3.90625 -3.59375,0 -6.52344,-1.36718 -2.92969,-1.40625 -4.96094,-3.82813 -1.99218,-2.42187 -3.28125,-5.46875 -1.25,-3.04687 -1.79687,-6.60156 z"
         style="font-style:normal;font-variant:normal;font-weight:300;font-stretch:normal;font-size:80px;line-height:129.99999523%;font-family:Oswald;-inkscape-font-specification:'Oswald Light';letter-spacing:4.94999981px;fill:#00158c;fill-opacity:1"
         id="path4167"
         inkscape:connector-curvature="0" />
      <path
         d="m 693.64805,394.3928 5.23437,-1.52344 q 0.3125,2.8125 1.09375,5.19531 0.82032,2.38282 2.1875,4.45313 1.36719,2.03125 3.59375,3.20312 2.26563,1.17188 5.11719,1.17188 4.57031,0 7.07031,-2.53906 2.5,-2.53907 2.5,-7.1875 0,-3.86719 -2.30468,-7.46094 -2.26563,-3.59375 -6.71875,-8.28125 l -10.50782,-11.05469 q -3.4375,-3.63281 -5.27343,-6.79687 -1.83594,-3.16407 -1.83594,-6.64063 0,-6.60156 4.33594,-10.54687 4.33593,-3.94532 11.13281,-3.94532 6.60156,0 10.625,3.75 4.02344,3.71094 5.35156,10.82032 l 0.11719,0.625 -5,1.5625 -0.0781,-0.54688 q -0.78125,-5.03906 -3.63281,-8.24219 -2.8125,-3.20312 -7.38281,-3.20312 -4.45313,0 -7.10938,2.26562 -2.61718,2.26563 -2.61718,6.67969 0,2.65625 1.40625,5.23438 1.44531,2.57812 4.10156,5.46875 l 9.88281,10.74218 q 0.39063,0.42969 1.95313,2.14844 1.5625,1.67969 2.03125,2.22656 0.50781,0.54688 1.79687,2.10938 1.32813,1.5625 1.79688,2.38281 0.50781,0.78125 1.40625,2.26563 0.89843,1.44531 1.21093,2.53906 0.35157,1.09375 0.66407,2.53906 0.3125,1.44531 0.3125,2.85156 0,7.1875 -4.45313,11.09375 -4.41406,3.90625 -11.44531,3.90625 -3.59375,0 -6.52344,-1.36718 -2.92969,-1.40625 -4.96094,-3.82813 -1.99218,-2.42187 -3.28125,-5.46875 -1.25,-3.04687 -1.79687,-6.60156 z"
         style="font-style:normal;font-variant:normal;font-weight:300;font-stretch:normal;font-size:80px;line-height:129.99999523%;font-family:Oswald;-inkscape-font-specification:'Oswald Light';letter-spacing:4.94999981px;fill:#00158c;fill-opacity:1"
         id="path4169"
         inkscape:connector-curvature="0" />
      <path
         d="m 737.42617,391.11155 0,-28.16406 q 0,-3.55469 0.50781,-6.52344 0.54688,-2.96875 1.79688,-5.58594 1.25,-2.65625 3.16406,-4.45312 1.91406,-1.83594 4.88281,-2.89063 2.96875,-1.05469 6.79688,-1.05469 3.82812,0 6.79687,1.05469 2.96875,1.05469 4.88282,2.89063 1.91406,1.79687 3.16406,4.45312 1.25,2.61719 1.75781,5.58594 0.54688,2.96875 0.54688,6.52344 l 0,28.16406 q 0,20.54687 -17.14844,20.54687 -17.14844,0 -17.14844,-20.54687 z m 28.35938,1.32812 0,-30.82031 q 0,-14.41406 -11.21094,-14.41406 -11.21094,0 -11.21094,14.41406 l 0,30.82031 q 0,14.45313 11.21094,14.45313 11.21094,0 11.21094,-14.45313 z"
         style="font-style:normal;font-variant:normal;font-weight:300;font-stretch:normal;font-size:80px;line-height:129.99999523%;font-family:Oswald;-inkscape-font-specification:'Oswald Light';letter-spacing:4.94999981px;fill:#00158c;fill-opacity:1"
         id="path4171"
         inkscape:connector-curvature="0" />
      <path
         d="m 785.65742,391.11155 0,-28.16406 q 0,-3.59375 0.46875,-6.52344 0.46875,-2.92969 1.64063,-5.58594 1.21094,-2.65625 3.08594,-4.45312 1.875,-1.83594 4.76562,-2.89063 2.92969,-1.05469 6.75781,-1.05469 15.78125,0 15.78125,20.50782 l 0,2.73437 -5.66406,0 0,-4.0625 q 0,-3.24219 -0.50781,-5.74219 -0.46875,-2.5 -1.60156,-4.49218 -1.13282,-2.03125 -3.16407,-3.08594 -1.99218,-1.09375 -4.84375,-1.09375 -2.57812,0 -4.49218,0.74219 -1.91407,0.70312 -3.125,1.95312 -1.17188,1.25 -1.91407,3.125 -0.70312,1.875 -0.97656,3.94531 -0.27344,2.03125 -0.27344,4.64844 l 0,30.82031 q 0,3.32032 0.46875,5.78125 0.46875,2.42188 1.60157,4.49219 1.17187,2.03125 3.35937,3.125 2.1875,1.05469 5.35156,1.05469 2.85157,0 4.84375,-1.05469 2.03125,-1.09375 3.16407,-3.125 1.13281,-2.03125 1.60156,-4.53125 0.50781,-2.5 0.50781,-5.74219 l 0,-4.60937 5.66406,0 0,3.28125 q 0,3.55469 -0.42968,6.48437 -0.42969,2.92969 -1.5625,5.625 -1.09375,2.65625 -2.85157,4.49219 -1.75781,1.79688 -4.53125,2.89063 -2.77343,1.05468 -6.40625,1.05468 -3.90625,0 -6.875,-1.05468 -2.92968,-1.09375 -4.80468,-2.89063 -1.83594,-1.83594 -3.00782,-4.49219 -1.13281,-2.69531 -1.60156,-5.58593 -0.42969,-2.92969 -0.42969,-6.52344 z"
         style="font-style:normal;font-variant:normal;font-weight:300;font-stretch:normal;font-size:80px;line-height:129.99999523%;font-family:Oswald;-inkscape-font-specification:'Oswald Light';letter-spacing:4.94999981px;fill:#00158c;fill-opacity:1"
         id="path4173"
         inkscape:connector-curvature="0" />
      <path
         d="m 832.13086,410.60374 0,-67.22657 5.9375,0 0,67.22657 -5.9375,0 z"
         style="font-style:normal;font-variant:normal;font-weight:300;font-stretch:normal;font-size:80px;line-height:129.99999523%;font-family:Oswald;-inkscape-font-specification:'Oswald Light';letter-spacing:4.94999981px;fill:#00158c;fill-opacity:1"
         id="path4175"
         inkscape:connector-curvature="0" />
      <path
         d="m 860.71367,389.15842 14.0625,0 -7.07031,-39.60937 -6.99219,39.60937 z m -4.14063,21.44532 -5.97656,0 13.28125,-67.22657 7.73438,0 13.28125,67.22657 -6.01563,0 -3.35937,-17.5 -15.50782,0 -3.4375,17.5 z"
         style="font-style:normal;font-variant:normal;font-weight:300;font-stretch:normal;font-size:80px;line-height:129.99999523%;font-family:Oswald;-inkscape-font-specification:'Oswald Light';letter-spacing:4.94999981px;fill:#00158c;fill-opacity:1"
         id="path4177"
         inkscape:connector-curvature="0" />
      <path
         d="m 901.64023,410.60374 0,-62.46094 -13.08594,0 0,-4.76563 32.22656,0 0,4.76563 -13.20312,0 0,62.46094 -5.9375,0 z"
         style="font-style:normal;font-variant:normal;font-weight:300;font-stretch:normal;font-size:80px;line-height:129.99999523%;font-family:Oswald;-inkscape-font-specification:'Oswald Light';letter-spacing:4.94999981px;fill:#00158c;fill-opacity:1"
         id="path4179"
         inkscape:connector-curvature="0" />
      <path
         d="m 929.94962,410.60374 0,-67.22657 5.9375,0 0,67.22657 -5.9375,0 z"
         style="font-style:normal;font-variant:normal;font-weight:300;font-stretch:normal;font-size:80px;line-height:129.99999523%;font-family:Oswald;-inkscape-font-specification:'Oswald Light';letter-spacing:4.94999981px;fill:#00158c;fill-opacity:1"
         id="path4181"
         inkscape:connector-curvature="0" />
      <path
         d="m 951.03241,391.11155 0,-28.16406 q 0,-3.55469 0.50781,-6.52344 0.54688,-2.96875 1.79688,-5.58594 1.25,-2.65625 3.16406,-4.45312 1.91406,-1.83594 4.88281,-2.89063 2.96875,-1.05469 6.79688,-1.05469 3.82812,0 6.79687,1.05469 2.96875,1.05469 4.88281,2.89063 1.91407,1.79687 3.16407,4.45312 1.25,2.61719 1.75781,5.58594 0.54687,2.96875 0.54687,6.52344 l 0,28.16406 q 0,20.54687 -17.14843,20.54687 -17.14844,0 -17.14844,-20.54687 z m 28.35937,1.32812 0,-30.82031 q 0,-14.41406 -11.21093,-14.41406 -11.21094,0 -11.21094,14.41406 l 0,30.82031 q 0,14.45313 11.21094,14.45313 11.21093,0 11.21093,-14.45313 z"
         style="font-style:normal;font-variant:normal;font-weight:300;font-stretch:normal;font-size:80px;line-height:129.99999523%;font-family:Oswald;-inkscape-font-specification:'Oswald Light';letter-spacing:4.94999981px;fill:#00158c;fill-opacity:1"
         id="path4184"
         inkscape:connector-curvature="0" />
      <path
         d="m 1000.5137,410.60374 0,-67.22657 4.5703,0 21.289,53.24219 0,-53.24219 5.0391,0 0,67.22657 -4.4531,0 -21.3281,-52.10938 0,52.10938 -5.1172,0 z"
         style="font-style:normal;font-variant:normal;font-weight:300;font-stretch:normal;font-size:80px;line-height:129.99999523%;font-family:Oswald;-inkscape-font-specification:'Oswald Light';letter-spacing:4.94999981px;fill:#00158c;fill-opacity:1"
         id="path4186"
         inkscape:connector-curvature="0" />
      <path
         d="m 618.04492,493.15842 14.0625,0 -7.07031,-39.60937 -6.99219,39.60937 z m -4.14062,21.44532 -5.97657,0 13.28125,-67.22657 7.73438,0 13.28125,67.22657 -6.01563,0 -3.35937,-17.5 -15.50781,0 -3.4375,17.5 z"
         style="font-style:normal;font-variant:normal;font-weight:300;font-stretch:normal;font-size:80px;line-height:129.99999523%;font-family:Oswald;-inkscape-font-specification:'Oswald Light';letter-spacing:4.94999981px;fill:#00158c;fill-opacity:1"
         id="path4188"
         inkscape:connector-curvature="0" />
      <path
         d="m 653.69805,498.0803 0,-50.70313 5.9375,0 0,52.07032 q 0,5.78125 2.61719,8.63281 2.61718,2.8125 8.82812,2.8125 5.85938,0 8.35938,-2.85156 2.5,-2.85157 2.5,-8.59375 l 0,-52.07032 5.89843,0 0,50.70313 q 0,17.57812 -16.75781,17.57812 -4.02344,0 -7.10937,-0.9375 -3.04688,-0.9375 -5,-2.5 -1.91407,-1.60156 -3.125,-3.86718 -1.21094,-2.30469 -1.67969,-4.76563 -0.46875,-2.5 -0.46875,-5.50781 z"
         style="font-style:normal;font-variant:normal;font-weight:300;font-stretch:normal;font-size:80px;line-height:129.99999523%;font-family:Oswald;-inkscape-font-specification:'Oswald Light';letter-spacing:4.94999981px;fill:#00158c;fill-opacity:1"
         id="path4190"
         inkscape:connector-curvature="0" />
      <path
         d="m 709.81992,477.02561 11.95313,0 q 2.53906,0 4.29687,-1.01562 1.75782,-1.01563 2.61719,-2.89063 0.89844,-1.875 1.25,-3.90625 0.35156,-2.03125 0.35156,-4.64844 0,-2.14843 -0.23437,-3.86718 -0.19531,-1.71875 -0.78125,-3.35938 -0.54688,-1.64062 -1.48438,-2.73437 -0.9375,-1.13282 -2.46093,-1.79688 -1.52344,-0.66406 -3.55469,-0.66406 l -11.95313,0 0,24.88281 z m -5.9375,37.57813 0,-67.22657 17.92969,0 q 3.39844,0 5.97656,0.9375 2.57813,0.9375 4.14063,2.5 1.60156,1.52344 2.57812,3.82813 0.97657,2.26562 1.32813,4.72656 0.39062,2.42188 0.39062,5.39063 0,12.85156 -9.375,16.28906 l 10.39063,33.55469 -6.32813,0 -9.80468,-32.8125 -11.28907,0 0,32.8125 -5.9375,0 z"
         style="font-style:normal;font-variant:normal;font-weight:300;font-stretch:normal;font-size:80px;line-height:129.99999523%;font-family:Oswald;-inkscape-font-specification:'Oswald Light';letter-spacing:4.94999981px;fill:#00158c;fill-opacity:1"
         id="path4192"
         inkscape:connector-curvature="0" />
      <path
         d="m 756.80118,493.15842 14.0625,0 -7.07031,-39.60937 -6.99219,39.60937 z m -4.14063,21.44532 -5.97656,0 13.28125,-67.22657 7.73438,0 13.28125,67.22657 -6.01563,0 -3.35937,-17.5 -15.50782,0 -3.4375,17.5 z"
         style="font-style:normal;font-variant:normal;font-weight:300;font-stretch:normal;font-size:80px;line-height:129.99999523%;font-family:Oswald;-inkscape-font-specification:'Oswald Light';letter-spacing:4.94999981px;fill:#00158c;fill-opacity:1"
         id="path4194"
         inkscape:connector-curvature="0" />
      <path
         d="m 793.46992,514.60374 0,-67.22657 4.57032,0 21.28906,53.24219 0,-53.24219 5.03906,0 0,67.22657 -4.45312,0 -21.32813,-52.10938 0,52.10938 -5.11719,0 z"
         style="font-style:normal;font-variant:normal;font-weight:300;font-stretch:normal;font-size:80px;line-height:129.99999523%;font-family:Oswald;-inkscape-font-specification:'Oswald Light';letter-spacing:4.94999981px;fill:#00158c;fill-opacity:1"
         id="path4196"
         inkscape:connector-curvature="0" />
      <path
         d="m 839.51367,495.81467 0,-28.51562 q 0,-20.85938 17.69531,-20.85938 2.8125,0 5.07813,0.625 2.30469,0.625 3.86719,1.71875 1.60156,1.05469 2.77343,2.73438 1.21094,1.67969 1.91407,3.47656 0.70312,1.79688 1.13281,4.21875 0.42969,2.38281 0.58594,4.64844 0.15625,2.22656 0.15625,5 l 0,0.46875 -5.9375,0 0,-0.50781 q 0,-0.15625 0,-0.50782 0,-2.85156 -0.0781,-4.29687 -0.0391,-1.48438 -0.27344,-3.86719 -0.23437,-2.42187 -0.85937,-3.67187 -0.625,-1.28907 -1.64063,-2.65625 -1.01562,-1.40625 -2.73437,-1.99219 -1.71875,-0.625 -4.0625,-0.625 -3.28125,0 -5.625,1.13281 -2.34375,1.09375 -3.63281,3.08594 -1.28907,1.99219 -1.875,4.29687 -0.54688,2.30469 -0.54688,5.07813 l 0,33.59375 q 0,2.57812 0.46875,4.64844 0.46875,2.03125 1.60156,3.90625 1.17188,1.875 3.47657,2.92968 2.30468,1.01563 5.66406,1.01563 3.08594,0 5.27344,-1.09375 2.1875,-1.09375 3.28125,-2.96875 1.09375,-1.91406 1.52343,-3.94531 0.46875,-2.03125 0.46875,-4.49219 l 0,-11.36719 -8.24218,0 0,-4.49219 14.17968,0 0,32.07032 -2.61718,0 -1.75782,-6.5625 q -1.32812,3.47656 -4.72656,5.54687 -3.35937,2.07031 -7.46094,2.07031 -2.69531,0 -4.96093,-0.50781 -2.22657,-0.46875 -3.86719,-1.25 -1.64063,-0.78125 -2.96875,-1.99219 -1.28906,-1.25 -2.14844,-2.46093 -0.82031,-1.21094 -1.44531,-2.8125 -0.625,-1.60157 -0.9375,-2.89063 -0.3125,-1.28906 -0.50781,-2.92969 -0.15625,-1.64062 -0.19532,-2.65625 -0.0391,-1.01562 -0.0391,-2.34375 z"
         style="font-style:normal;font-variant:normal;font-weight:300;font-stretch:normal;font-size:80px;line-height:129.99999523%;font-family:Oswald;-inkscape-font-specification:'Oswald Light';letter-spacing:4.94999981px;fill:#00158c;fill-opacity:1"
         id="path4198"
         inkscape:connector-curvature="0" />
      <path
         d="m 894.46368,493.15842 14.0625,0 -7.07031,-39.60937 -6.99219,39.60937 z m -4.14062,21.44532 -5.97656,0 13.28125,-67.22657 7.73437,0 13.28125,67.22657 -6.01562,0 -3.35938,-17.5 -15.50781,0 -3.4375,17.5 z"
         style="font-style:normal;font-variant:normal;font-weight:300;font-stretch:normal;font-size:80px;line-height:129.99999523%;font-family:Oswald;-inkscape-font-specification:'Oswald Light';letter-spacing:4.94999981px;fill:#00158c;fill-opacity:1"
         id="path4200"
         inkscape:connector-curvature="0" />
      <path
         d="m 937.06992,476.24436 9.53125,0 q 2.1875,0 3.75,-0.9375 1.5625,-0.97656 2.42187,-2.65625 0.85938,-1.71875 1.25,-3.71094 0.39063,-1.99218 0.39063,-4.375 0,-12.65625 -9.60938,-12.65625 l -7.73437,0 0,24.33594 z m 0,33.82813 10.625,0 q 2.03125,0 3.55468,-0.82032 1.52344,-0.85937 2.46094,-2.22656 0.9375,-1.36719 1.48438,-3.4375 0.58593,-2.07031 0.78125,-4.21875 0.23437,-2.14844 0.23437,-4.80469 0,-2.38281 -0.19531,-4.25781 -0.19531,-1.875 -0.78125,-3.71094 -0.54688,-1.83593 -1.48438,-3.04687 -0.89843,-1.25 -2.46093,-1.99219 -1.52344,-0.74219 -3.59375,-0.74219 l -10.625,0 0,29.25782 z m -5.9375,4.53125 0,-67.22657 14.45312,0 q 3.47656,0 6.17188,0.97657 2.69531,0.97656 4.375,2.57812 1.67968,1.60156 2.73437,3.86719 1.09375,2.26562 1.48438,4.60937 0.42968,2.34375 0.42968,5.03907 0,4.17968 -1.95312,8.16406 -1.91406,3.98437 -5.3125,5.54687 2.38281,0.97657 4.14062,2.89063 1.75782,1.875 2.69532,4.21875 0.9375,2.34375 1.36718,4.6875 0.42969,2.30469 0.42969,4.60937 0,3.51563 -0.35156,6.21094 -0.3125,2.69531 -1.32813,5.42969 -0.97656,2.69531 -2.61718,4.45312 -1.64063,1.75782 -4.45313,2.85157 -2.8125,1.09375 -6.64062,1.09375 l -15.625,0 z"
         style="font-style:normal;font-variant:normal;font-weight:300;font-stretch:normal;font-size:80px;line-height:129.99999523%;font-family:Oswald;-inkscape-font-specification:'Oswald Light';letter-spacing:4.94999981px;fill:#00158c;fill-opacity:1"
         id="path4202"
         inkscape:connector-curvature="0" />
      <path
         d="m 981.55118,493.15842 14.0625,0 -7.07031,-39.60937 -6.99219,39.60937 z m -4.14063,21.44532 -5.97656,0 13.28125,-67.22657 7.73438,0 13.28128,67.22657 -6.01566,0 -3.35937,-17.5 -15.50782,0 -3.4375,17.5 z"
         style="font-style:normal;font-variant:normal;font-weight:300;font-stretch:normal;font-size:80px;line-height:129.99999523%;font-family:Oswald;-inkscape-font-specification:'Oswald Light';letter-spacing:4.94999981px;fill:#00158c;fill-opacity:1"
         id="path4204"
         inkscape:connector-curvature="0" />
      <path
         d="m 1018.2199,514.60374 0,-67.22657 15.1172,0 q 3.8281,0 6.7969,1.05469 2.9687,1.01563 4.8828,2.8125 1.9531,1.75781 3.164,4.33594 1.25,2.57812 1.7579,5.46875 0.5468,2.89062 0.5468,6.36719 l 0,27.34375 q 0,19.84375 -17.1484,19.84375 l -15.1172,0 z m 5.9375,-4.76563 9.1797,0 q 11.2109,0 11.2109,-13.75 l 0,-30 q 0,-13.94531 -11.2109,-13.94531 l -9.1797,0 0,57.69531 z"
         style="font-style:normal;font-variant:normal;font-weight:300;font-stretch:normal;font-size:80px;line-height:129.99999523%;font-family:Oswald;-inkscape-font-specification:'Oswald Light';letter-spacing:4.94999981px;fill:#00158c;fill-opacity:1"
         id="path4206"
         inkscape:connector-curvature="0" />
    </g>
    <circle
       style="opacity:0.84899998;fill:#ffffff;fill-opacity:1;fill-rule:evenodd;stroke:none;stroke-width:42;stroke-linecap:round;stroke-linejoin:round;stroke-miterlimit:4;stroke-dasharray:none;stroke-dashoffset:0;stroke-opacity:1"
       id="path4174"
       cx="312.63763"
       cy="991.79578"
       r="9.0999975" />
  </g>
</svg>
