<?xml version="1.0" encoding="UTF-8" standalone="no"?>
<!-- Created with Inkscape (http://www.inkscape.org/) -->

<svg
   xmlns:dc="http://purl.org/dc/elements/1.1/"
   xmlns:cc="http://creativecommons.org/ns#"
   xmlns:rdf="http://www.w3.org/1999/02/22-rdf-syntax-ns#"
   xmlns:svg="http://www.w3.org/2000/svg"
   xmlns="http://www.w3.org/2000/svg"
   xmlns:sodipodi="http://sodipodi.sourceforge.net/DTD/sodipodi-0.dtd"
   xmlns:inkscape="http://www.inkscape.org/namespaces/inkscape"
   width="500"
   height="500"
   viewBox="0 0 499.99995 500.00002"
   id="svg4136"
   version="1.1"
   inkscape:version="0.91 r13725"
   sodipodi:docname="MANISH FINALY.svg">
  <defs
     id="defs4138" />
  <sodipodi:namedview
     id="base"
     pagecolor="#ffffff"
     bordercolor="#666666"
     borderopacity="1.0"
     inkscape:pageopacity="0.0"
     inkscape:pageshadow="2"
     inkscape:zoom="0.69999999"
     inkscape:cx="136.57489"
     inkscape:cy="177.68131"
     inkscape:document-units="px"
     inkscape:current-layer="layer1"
     showgrid="false"
     units="px"
     inkscape:window-width="1394"
     inkscape:window-height="856"
     inkscape:window-x="46"
     inkscape:window-y="0"
     inkscape:window-maximized="1"
     borderlayer="true" />
  <metadata
     id="metadata4141">
    <rdf:RDF>
      <cc:Work
         rdf:about="">
        <dc:format>image/svg+xml</dc:format>
        <dc:type
           rdf:resource="http://purl.org/dc/dcmitype/StillImage" />
        <dc:title></dc:title>
      </cc:Work>
    </rdf:RDF>
  </metadata>
  <g
     inkscape:label="Layer 1"
     inkscape:groupmode="layer"
     id="layer1"
     transform="translate(0,-552.3622)">
    <circle
       style="opacity:1;fill:#fb0071;fill-opacity:1;fill-rule:nonzero;stroke:#ffc022;stroke-width:0;stroke-linecap:round;stroke-linejoin:round;stroke-miterlimit:4;stroke-dasharray:none;stroke-dashoffset:0;stroke-opacity:1"
       id="path4491"
       cx="356.83429"
       cy="663.26721"
       r="84.33152" />
    <path
       style="font-style:normal;font-weight:normal;font-size:400px;line-height:125%;font-family:sans-serif;letter-spacing:0px;word-spacing:0px;fill:#0084c8;fill-opacity:1;stroke:#0084c8;stroke-width:3.79491878;stroke-linecap:butt;stroke-linejoin:miter;stroke-miterlimit:4;stroke-dasharray:none;stroke-opacity:1"
       d="m 385.31752,661.65267 c -23.95015,-105.49706 -53.36415,21.65298 -53.36415,21.65298 -60.75243,21.19336 -3.97623,15.75397 -8.80674,22.43387 -4.66269,6.41932 -8.69542,13.14898 -12.09736,20.19066 -6.37546,13.98891 -11.29874,28.44755 -14.76982,43.37339 -3.51831,14.71079 -6.51461,29.75722 -8.98637,45.13845 -3.22652,21.16722 -5.99934,42.34792 -8.32099,63.54212 -2.15467,20.93193 -5.05905,42.02746 -8.71482,63.28913 -4.10442,-14.61297 -8.59254,-28.91728 -13.46016,-42.91294 l -14.74537,-42.63212 c -7.27865,-20.88723 -14.83223,-41.48943 -22.66072,-61.80574 -7.8285,-20.31715 -17.13532,-40.19662 -27.91964,-59.6401 0.0506,-1.80975 -0.8138,-3.19448 -2.59741,-4.15248 -1.56941,-1.00439 -3.21219,-1.3181 -4.92834,-0.94198 l -0.6426,0.13999 c -10.30785,6.30799 -20.19066,13.53521 -29.64591,21.6791 -9.24105,8.09752 -18.22067,16.36201 -26.93802,24.79432 -5.37445,5.22518 -10.52288,10.96394 -15.447,17.21543 -4.92412,6.25066 -9.08756,12.89682 -12.489498,19.93766 -3.449159,6.82748 -5.816345,13.97964 -7.099028,21.45563 -1.283526,7.47599 -1.054144,15.18136 0.686459,23.11865 0.188059,0.85765 1.020411,1.57531 2.49537,2.15045 1.690004,0.52876 2.856309,0.72272 3.499758,0.58189 2.360439,-0.5178 3.625409,-1.91854 3.798289,-4.20477 0.1265,-2.50127 0.16867,-4.87183 0.12734,-7.11084 -0.0885,-2.45404 0.14505,-4.97809 0.69996,-7.57297 2.17322,-10.59457 6.6664,-20.34751 13.47954,-29.26135 7.02819,-8.96107 14.26889,-16.95654 21.72043,-23.98642 5.20663,-4.96375 10.61481,-9.52271 16.2237,-13.67604 5.56251,-4.36753 10.94707,-9.03444 16.1537,-13.99904 -2.50296,9.09263 -4.52944,18.30669 -6.07946,27.64051 -1.33581,9.28658 -2.54175,18.65582 -3.61529,28.10938 -0.90741,9.19214 -1.89746,18.51583 -2.97184,27.9694 -0.85934,9.40634 -1.95649,18.75196 -3.29231,28.03854 -1.52977,10.4529 -3.39603,21.42949 -5.59539,32.92894 -1.98517,11.45222 -4.92075,22.66325 -8.81012,33.63394 -3.88937,10.96985 -8.82614,21.27178 -14.80777,30.90245 -5.76743,9.58343 -13.19704,17.73405 -22.29135,24.44937 -3.913823,2.65728 -7.707055,4.8381 -11.380537,6.54247 -3.934066,1.5373 -7.92885,3.3134 -11.98351,5.3272 -2.265988,0.9462 -3.117737,2.7062 -2.553559,5.28 0.235285,1.0727 0.899817,2.0509 1.992754,2.9356 0.879578,0.931 1.85445,1.2793 2.927148,1.044 7.508036,-1.647 14.566585,-4.3186 21.175644,-8.0166 6.65545,-3.4829 12.80152,-7.75256 18.4374,-12.81077 5.63587,-5.0582 10.70083,-10.66625 15.1957,-16.82327 4.49571,-6.15704 8.35978,-12.62527 11.59474,-19.40468 6.30125,-13.29824 11.06767,-26.93549 14.29841,-40.90923 3.44494,-14.02096 6.28354,-28.246 8.51495,-42.67428 3.15316,-20.47738 5.87791,-40.86031 8.17342,-61.14879 2.29466,-20.28933 5.12567,-40.69418 8.49387,-61.21795 11.17055,26.32831 20.77929,53.225 28.82536,80.68841 8.21473,27.20198 16.98858,54.39299 26.3224,81.57389 3.0022,8.55965 6.33583,17.60927 10.00172,27.148 3.83287,9.27647 8.25184,17.6371 13.25691,25.08358 1.02042,1.57446 2.49537,2.15129 4.42572,1.7271 1.0727,-0.23444 2.01553,-0.55405 2.8268,-0.95631 1.02547,-0.45034 1.78867,-1.0668 2.29128,-1.85193 5.45878,-9.96545 9.62223,-21.22118 12.49119,-33.76718 3.084,-12.59239 5.43179,-25.47234 7.04,-38.64071 1.77602,-13.4298 3.25435,-26.68165 4.43415,-39.75557 1.13257,-13.28896 2.49958,-25.50523 4.10273,-36.6488 1.60314,-11.14356 3.43313,-22.78722 5.49167,-34.92927 2.27273,-12.19013 5.39131,-24.11629 9.35405,-35.77681 4.17694,-11.70859 9.3161,-22.61603 15.41833,-32.72316 6.26921,-10.36857 18.08321,-22.49544 27.77375,-29.56664 4.29585,-2.96594 8.41207,-5.21759 12.34698,-6.75495 3.88768,-1.75157 8.07305,-3.68192 12.55696,-5.78936 2.43297,-1.20847 4.76305,-3.91216 2.80234,-5.673 -4.43584,-3.98045 7.61851,-21.64538 6.52557,-22.53001 -0.8197,-0.66285 -10.15351,18.58245 -10.96141,18.54956 z"
       id="text4190"
       inkscape:connector-curvature="0"
       sodipodi:nodetypes="ccccccccccsccccccscsscsccccccccccccsccccscscsscccscccccscccccsccccccssc" />
    <ellipse
       style="opacity:1;fill:#fb0071;fill-opacity:1;fill-rule:nonzero;stroke:#ffc022;stroke-width:0;stroke-linecap:round;stroke-linejoin:round;stroke-miterlimit:4;stroke-dasharray:none;stroke-dashoffset:0;stroke-opacity:1"
       id="path4491-5-1"
       cx="364.27094"
       cy="644.76367"
       rx="8.4331551"
       ry="8.4331512" />
    <ellipse
       style="opacity:1;fill:#fb0071;fill-opacity:1;fill-rule:nonzero;stroke:#ffc022;stroke-width:0;stroke-linecap:round;stroke-linejoin:round;stroke-miterlimit:4;stroke-dasharray:none;stroke-dashoffset:0;stroke-opacity:1"
       id="path4491-5-1-8"
       cx="383.76437"
       cy="665.72461"
       rx="2.4094748"
       ry="2.4094739" />
  </g>
</svg>
